<?xml version="1.0" standalone="no"?>
<!DOCTYPE svg PUBLIC "-//W3C//DTD SVG 20010904//EN"
 "http://www.w3.org/TR/2001/REC-SVG-20010904/DTD/svg10.dtd">
<svg version="1.0" xmlns="http://www.w3.org/2000/svg"
 width="200.000000pt" height="200.000000pt" viewBox="0 0 200.000000 200.000000"
 preserveAspectRatio="xMidYMid meet">
<metadata>
Created by potrace 1.15, written by Peter Selinger 2001-2017
</metadata>
<g transform="translate(0.000000,200.000000) scale(0.100000,-0.100000)"
fill="#000000" stroke="none">
<path d="M830 1412 c-19 -15 -24 -31 -28 -94 -6 -93 3 -143 29 -169 16 -16 33
-19 124 -19 l105 0 0 80 0 80 -50 0 -50 0 0 -41 c0 -36 -2 -40 -22 -37 -21 3
-23 10 -26 62 -4 69 2 76 71 76 l47 0 0 40 0 40 -89 0 c-71 0 -93 -4 -111 -18z"/>
<path d="M1100 1280 l0 -150 115 0 115 0 0 40 0 40 -65 0 c-50 0 -65 3 -65 14
0 11 14 16 48 18 47 3 47 3 50 41 l3 37 -50 0 c-39 0 -51 4 -51 15 0 12 14 15
65 15 l65 0 0 40 0 40 -115 0 -115 0 0 -150z"/>
<path d="M1370 1280 l0 -150 115 0 115 0 0 40 0 40 -65 0 c-50 0 -65 3 -65 14
0 11 14 16 48 18 47 3 47 3 50 41 l3 37 -50 0 c-39 0 -51 4 -51 15 0 12 14 15
65 15 l65 0 0 40 0 40 -115 0 -115 0 0 -150z"/>
<path d="M1640 1280 l0 -150 50 0 50 0 0 55 c0 54 0 55 30 55 30 0 30 0 30
-56 l0 -55 53 3 52 3 0 78 c0 70 -3 81 -23 97 l-22 18 20 47 c11 26 20 49 20
51 0 2 -23 4 -51 4 l-50 0 -27 -57 -27 -58 -3 58 -3 57 -49 0 -50 0 0 -150z"/>
<path d="M800 1045 c0 -45 0 -45 35 -45 l35 0 0 -110 0 -110 50 0 50 0 0 110
0 110 41 0 40 0 -3 43 -3 42 -122 3 -123 3 0 -46z"/>
<path d="M1080 935 l0 -155 116 0 115 0 -3 43 -3 42 -62 3 c-74 3 -84 20 -15
24 l47 3 0 40 0 40 -47 3 c-72 5 -58 22 18 22 l65 0 -3 43 -3 42 -112 3 -113
3 0 -156z"/>
<path d="M1345 1071 c-8 -26 9 -88 31 -112 15 -17 15 -20 -4 -43 -23 -30 -36
-87 -27 -117 6 -17 14 -20 53 -17 46 3 47 4 50 37 2 19 9 43 17 54 12 18 13
18 29 -5 9 -12 16 -37 16 -55 0 -33 0 -33 50 -33 l50 0 0 49 c0 33 -6 56 -20
74 -25 32 -25 41 1 76 14 20 19 39 17 67 -3 39 -3 39 -50 42 -47 3 -48 2 -48
-26 0 -15 -6 -37 -14 -47 -12 -16 -16 -17 -29 -6 -9 7 -17 27 -19 44 -3 30 -5
32 -50 35 -39 3 -47 0 -53 -17z"/>
<path d="M1637 1084 c-4 -4 -7 -25 -7 -46 0 -38 0 -38 40 -38 l40 0 0 -110 0
-110 50 0 50 0 0 110 0 110 41 0 40 0 -3 43 -3 42 -121 3 c-66 1 -123 -1 -127
-4z"/>
</g>
</svg>
